<?xml version="1.0" encoding="UTF-8" standalone="no"?>
<!DOCTYPE svg PUBLIC "-//W3C//DTD SVG 1.1//EN" "http://www.w3.org/Graphics/SVG/1.1/DTD/svg11.dtd">
<svg width="100%" height="100%" viewBox="0 0 6937 1953" version="1.1" xmlns="http://www.w3.org/2000/svg" xmlns:xlink="http://www.w3.org/1999/xlink" xml:space="preserve" xmlns:serif="http://www.serif.com/" style="fill-rule:evenodd;clip-rule:evenodd;stroke-linejoin:round;stroke-miterlimit:2;">
    <g transform="matrix(1,0,0,1,-798.347,-2221.64)">
        <g transform="matrix(1.70174,0,0,1.70174,14.0434,6.76959)">
            <path d="M1633.41,2069.41C1624.4,2088.02 1614.35,2106.21 1606.55,2125.32C1581.24,2187.31 1556.93,2249.7 1531.84,2311.77C1525.38,2327.76 1517.88,2343.37 1510.12,2358.79C1502.93,2373.08 1490.63,2381.68 1475.4,2385.97C1450.47,2393.01 1425.55,2392.43 1400.85,2384.76C1379.68,2378.18 1365.11,2363.95 1354.98,2344.62C1338.01,2312.22 1327.97,2277.35 1326.02,2241.31C1323.2,2188.89 1321.31,2136.16 1323.76,2083.79C1328.31,1986.68 1335.77,1889.7 1343,1792.73C1348.63,1717.33 1356.17,1642.07 1361.95,1566.68C1363.87,1541.6 1363.26,1516.3 1363.13,1491.1C1363.09,1481.13 1361.21,1471.17 1359.61,1455.95C1352.2,1465.36 1347.24,1471.01 1343,1477.16C1310.13,1524.74 1283.44,1575.79 1260.05,1628.52C1227.93,1700.93 1196.72,1773.73 1164.69,1846.17C1158.01,1861.27 1149.76,1875.71 1141.73,1890.18C1132.78,1906.29 1118.34,1915.17 1100.76,1919.42C1076.45,1925.3 1052.16,1924.78 1028.03,1918.51C1003.05,1912.02 984.633,1896.91 971.299,1874.95C951.717,1842.71 936.486,1808.47 927.33,1772C912.434,1712.67 899.066,1652.95 885.013,1593.4C884.101,1589.53 882.847,1585.74 878.071,1581.52C875.797,1588.61 873.224,1595.62 871.299,1602.81C853.534,1669.11 844.082,1736.89 837.346,1804.97C828.128,1898.11 819.376,1991.35 812.957,2084.72C806.976,2171.72 806.896,2258.93 813.78,2346C814.234,2351.75 814.658,2357.5 814.76,2363.26C815.161,2385.79 810.213,2393.2 789.105,2399.48C764.263,2406.87 739.277,2406.34 714.679,2398.2C695.723,2391.93 683.937,2377.9 674.937,2360.65C646.496,2306.17 624.948,2249.02 607.957,2190.04C577.417,2084.04 556.968,1975.78 535.25,1867.78C515.8,1771.08 494.798,1674.69 476.33,1577.81C468.673,1537.64 465.147,1496.62 461.187,1455.85C459.963,1443.24 462.665,1430.01 465.033,1417.34C469.791,1391.86 485.854,1375.62 511.098,1372.27C530.071,1369.75 549.991,1369.94 568.935,1372.72C593.174,1376.26 611.348,1391.46 620.99,1413.94C630.88,1437 640.115,1460.64 646.493,1484.86C686.483,1636.71 719.206,1790.24 750.186,1944.14C751.134,1948.85 752.722,1953.44 757.695,1958.1C761.052,1933.17 764.398,1908.24 767.765,1883.32C780.681,1787.72 792.463,1691.94 807.036,1596.59C813.653,1553.29 826.084,1510.9 835.344,1467.99C841.051,1441.54 857.513,1426.62 883.236,1421.53C964.363,1405.5 1019.6,1431.8 1052.8,1485.83C1066.98,1508.91 1078.15,1534.35 1087.25,1559.94C1106.13,1613.05 1116.59,1668.27 1122.41,1724.34C1123.15,1731.5 1124.01,1738.66 1125.09,1745.78C1125.38,1747.76 1126.63,1749.59 1128.5,1753.96C1133.26,1745.71 1137.43,1739.22 1140.89,1732.37C1169.48,1675.82 1196.83,1618.61 1226.78,1562.79C1253.65,1512.7 1283.78,1464.38 1311.62,1414.8C1331.24,1379.84 1361.87,1367.39 1399.88,1367.56C1463.2,1367.85 1504.48,1396.06 1527.4,1455.39C1543.47,1496.97 1549.21,1540.76 1549.25,1584.71C1549.3,1647.33 1547.4,1710.04 1543.69,1772.55C1538.56,1858.81 1531.5,1944.97 1524.21,2031.08C1520.08,2079.86 1513.79,2128.46 1508.55,2177.15C1507.44,2187.51 1506.66,2197.9 1509.75,2209.35C1513.23,2203.41 1516.89,2197.57 1520.17,2191.52C1542.83,2149.75 1564.63,2107.49 1588.36,2066.34C1599.07,2047.77 1612.96,2030.88 1626.64,2014.23C1632.97,2006.53 1636.08,1999.21 1636.64,1989.27C1642.24,1888.74 1678.22,1800.02 1743.25,1723.48C1809.12,1645.93 1894.05,1610.4 1995.33,1613.39C2038.27,1614.66 2077.48,1627.62 2111.71,1653.94C2154.49,1686.84 2169.36,1731.12 2152.16,1782.37C2129.34,1850.42 2084.59,1900.45 2020.39,1932.59C1974.02,1955.8 1924.06,1966.03 1872.92,1971.49C1867.25,1972.1 1861.58,1972.77 1856.48,1973.35C1855.07,1975.09 1853.5,1976.13 1853.4,1977.29C1848.31,2044.65 1850.81,2111.2 1876.02,2175.05C1879.96,2185.04 1885.1,2194.68 1890.62,2203.92C1915.65,2245.76 1953.22,2261.19 2000.69,2255.5C2047.33,2249.91 2090.01,2233.45 2129.38,2208.31C2151.22,2194.36 2172.16,2179 2193.9,2164.88C2228.31,2142.51 2263.01,2120.59 2297.68,2098.64C2304.43,2094.36 2309.74,2090.52 2311.61,2081.22C2328.58,1997.2 2379.99,1940.27 2455.03,1903.01C2487.88,1886.7 2521.73,1872.42 2554.87,1856.67C2594.15,1838.01 2629.88,1813.71 2662.12,1784.67C2694.94,1755.11 2731.16,1733.52 2775.67,1726.66C2825.27,1719.01 2870.22,1730.86 2905.48,1764.9C2927.74,1786.38 2944.75,1814.52 2959.62,1842.11C2976.95,1874.29 2988.04,1909.79 3004.37,1942.59C3018.41,1970.81 3035.58,1997.54 3052.18,2024.42C3062.77,2041.55 3074.48,2058.02 3086.29,2074.35C3122.03,2123.74 3130.68,2180.42 3126.61,2238.79C3124.8,2264.71 3113.21,2289.94 3105.21,2318.47C3132.71,2349.04 3167.43,2369.84 3214.01,2367.1C3268.11,2363.91 3316.25,2344.7 3360.94,2315.33C3411.46,2282.12 3453.53,2239.72 3490.82,2192.65C3558.05,2107.78 3609.71,2014.22 3643.22,1911.05C3646.66,1900.46 3648.32,1888.53 3647.53,1877.45C3641.35,1790.41 3639.34,1703.31 3642.8,1616.12C3643.28,1603.93 3644.87,1591.72 3646.83,1579.67C3649.59,1562.79 3659.12,1550.43 3675.03,1544.08C3722.88,1524.98 3770.58,1525.2 3817.47,1547.23C3836.94,1556.37 3849.07,1572.83 3853.78,1593.25C3860.73,1623.36 3867.3,1653.72 3871.22,1684.33C3893.47,1858.1 3903.16,2032.84 3911.28,2207.72C3913.48,2255.15 3919.07,2302.43 3923.33,2349.75C3923.82,2355.14 3925.82,2360.41 3928.21,2370.19C3936.78,2356.13 3944.18,2346.37 3949.11,2335.49C3971.05,2286.97 3993.56,2238.65 4013.48,2189.3C4051.01,2096.36 4078.47,2000.08 4104.79,1903.49C4108.76,1888.92 4113.46,1874.54 4118.05,1860.14C4123.25,1843.84 4135.37,1836.13 4151.61,1833.68C4186.33,1828.44 4209.32,1839.53 4227.1,1870.68C4248.03,1907.36 4258.4,1947.87 4269.54,1988.15C4286.42,2049.18 4302.82,2110.38 4321.82,2170.74C4330.19,2197.28 4343.96,2222.19 4356.3,2247.34C4360.56,2256.03 4367.9,2263.2 4375.06,2272.68C4395.09,2244.61 4402.81,2214.71 4407.22,2184.11C4410.61,2160.66 4412.91,2136.76 4412.5,2113.12C4411.23,2041.11 4409.08,1969.1 4405.99,1897.15C4403.28,1833.83 4399.03,1770.57 4395.07,1707.31C4391.95,1657.71 4386.29,1608.19 4385.26,1558.57C4383.84,1491.66 4385.21,1424.67 4386.6,1357.75C4387.1,1333.95 4395.85,1326.18 4419.48,1322.84C4427.25,1321.75 4435.32,1321.4 4443.13,1322.07C4471.63,1324.53 4483.57,1333.17 4490.14,1361.12C4499.69,1401.73 4506.19,1443.06 4515.53,1483.74C4531.93,1555.21 4533.82,1628.05 4535.91,1700.67C4539.54,1826.06 4534.49,1951.35 4523.56,2076.31C4519.21,2125.87 4509.61,2174.71 4493.29,2221.91C4488.6,2235.49 4483.04,2248.89 4476.56,2261.7C4443.41,2327.21 4367.33,2346.25 4306.46,2304.55C4285.92,2290.47 4270.24,2271.74 4256.46,2251.3C4223.74,2202.83 4203.76,2149.13 4191.47,2092.31C4180.05,2039.54 4168.73,1986.75 4157.3,1933.98C4156.43,1930 4155.11,1926.13 4149.69,1921.33C4146.35,1930.93 4142.62,1940.42 4139.72,1950.16C4107.83,2057.08 4076.32,2164.11 4044.15,2270.95C4034.83,2301.94 4024.99,2332.91 4012.94,2362.9C4005.53,2381.37 3994.73,2398.88 3983.19,2415.21C3968.73,2435.67 3947.23,2445.31 3922.32,2447.93C3870.08,2453.43 3827.52,2435.89 3794.63,2395.06C3764.04,2357.07 3742.83,2313.81 3724.86,2268.85C3693.36,2190.09 3676.26,2107.73 3664.08,2024.16C3662.97,2016.49 3661.58,2008.85 3659.49,1996.13C3653.79,2006.8 3650.31,2012.8 3647.29,2019.02C3604.98,2106.34 3553.77,2187.89 3488.84,2260.26C3435.33,2319.9 3372.16,2365.06 3293.1,2384.71C3245.07,2396.65 3196.25,2401.24 3147.57,2391.02C3122.5,2385.76 3098.55,2375.14 3071.36,2366.03C3070.27,2366.88 3066.29,2369.71 3062.59,2372.87C3032.21,2398.88 2996.83,2409.02 2957.1,2409.74C2894.57,2410.87 2840.83,2389.65 2790.47,2353.94C2730.66,2311.53 2663.06,2294.76 2590.13,2304.87C2570.44,2307.59 2551.56,2316.09 2532.23,2321.65C2409.74,2356.87 2323.54,2265.66 2315.55,2165.24C2314.64,2153.88 2313.23,2142.56 2311.65,2127.24C2302.69,2133.62 2296.27,2137.66 2290.46,2142.4C2256.99,2169.73 2224.14,2197.87 2190.16,2224.56C2085.82,2306.51 1968.37,2331.29 1840.12,2299.49C1727.03,2271.46 1661.14,2197.83 1641.12,2083.1C1640.42,2079.03 1639.66,2074.97 1638.93,2070.9C1637.09,2070.41 1635.25,2069.91 1633.41,2069.41ZM1855.28,1942.59C1872.7,1939.65 1885.53,1938.21 1897.99,1935.21C1913.31,1931.52 1928.75,1927.62 1943.39,1921.91C1999.99,1899.85 2038.85,1859.75 2061.66,1803.58C2070.31,1782.26 2072.15,1760.4 2068.64,1738.01C2063.49,1705.18 2046.49,1681.19 2015.77,1666.96C2002.79,1660.95 1991.42,1661.38 1979.23,1668.69C1960.1,1680.15 1946.52,1696.72 1935.38,1715.3C1902.63,1769.92 1879.55,1828.54 1865.32,1890.59C1861.67,1906.46 1859.1,1922.57 1855.28,1942.59Z" style="fill:rgb(51,51,51);fill-rule:nonzero;"/>
        </g>
        <g transform="matrix(1.70174,0,0,1.70174,14.0434,6.76959)">
            <path d="M2843.13,1462.9C2841.44,1500.12 2837.81,1529.23 2826.36,1556.99C2816,1582.09 2799.28,1601.27 2774.55,1612.39C2756.22,1620.63 2737.38,1627.96 2718.3,1634.27C2683.14,1645.9 2652.76,1635.75 2627.61,1610.18C2606.65,1588.86 2591.54,1563.91 2584.45,1534.16C2574.46,1492.27 2569.34,1450.74 2582.69,1408.49C2597.09,1362.89 2623.35,1328.31 2668.36,1308.9C2695.18,1297.32 2721.12,1299.75 2745.07,1313.61C2788.72,1338.86 2822.42,1373.69 2836.68,1423.58C2840.97,1438.62 2841.84,1454.64 2843.13,1462.9Z" style="fill:rgb(51,51,51);fill-rule:nonzero;"/>
        </g>
        <g transform="matrix(1.70174,0,0,1.70174,14.0434,6.76959)">
            <path d="M3204.68,1536.79C3200.85,1558.65 3198.89,1581.05 3192.82,1602.27C3176.64,1658.77 3139.03,1694.4 3082.03,1709.06C3070.91,1711.92 3059.54,1714.02 3048.15,1715.49C2987.44,1723.37 2933.51,1684.25 2930.37,1623.11C2924.54,1509.63 2983.88,1431.66 3095.71,1411.16C3131.33,1404.62 3160.66,1419.54 3180.78,1450.17C3197.95,1476.3 3205.42,1505.08 3204.68,1536.79Z" style="fill:rgb(51,51,51);fill-rule:nonzero;"/>
        </g>
        <g transform="matrix(1.70174,0,0,1.70174,14.0434,6.76959)">
            <path d="M2249.37,1643.76C2251.82,1625.27 2251.89,1606.07 2257.17,1588.43C2273.71,1533.16 2312.02,1500.47 2368.18,1488.65C2390.88,1483.87 2410.65,1491.48 2428.83,1504.77C2476.78,1539.79 2495.46,1588.12 2491.96,1645.86C2490.61,1668.06 2487.21,1690.19 2483.85,1712.21C2477.33,1754.83 2451.73,1785.26 2412.39,1796.7C2355.38,1813.28 2302.62,1806.57 2271.14,1744.37C2255.11,1712.71 2249.43,1679.1 2249.37,1643.76Z" style="fill:rgb(51,51,51);fill-rule:nonzero;"/>
        </g>
        <g transform="matrix(1.70174,0,0,1.70174,14.0434,6.76959)">
            <path d="M3206.46,2011.02C3198.59,2009.78 3185.54,2008.93 3173.2,2005.55C3133.3,1994.64 3110.91,1961.72 3115.95,1920.9C3124.33,1853.27 3182.52,1780.12 3259.21,1766.4C3303.97,1758.38 3348.61,1779.31 3370.51,1819.02C3404.99,1881.52 3381.34,1954.21 3315.76,1986.68C3282.96,2002.92 3247.79,2009.17 3206.46,2011.02Z" style="fill:rgb(51,51,51);fill-rule:nonzero;"/>
        </g>
    </g>
</svg>
